<svg width="3348" height="1078" viewBox="0 0 3348 1078" fill="none" xmlns="http://www.w3.org/2000/svg">
<g clip-path="url(#clip0_125_17)">
<path fill-rule="evenodd" clip-rule="evenodd" d="M589.971 74.7476H428.018V468.062L44.4924 468.061V630.014H370.378L166.402 938.526L301.497 1027.85L502.369 724.03L729.101 1027.85L858.896 930.992L634.287 630.014H991.293V468.061H605.988H597.979L589.971 468.062V74.7476Z" fill="white"/>
<rect x="465.392" y="74.7476" width="82.7561" height="521.452" fill="black"/>
<rect x="488.928" y="527.681" width="88.9851" height="521.452" transform="rotate(34.2081 488.928 527.681)" fill="black"/>
<rect x="828.032" y="956.072" width="88.9851" height="521.452" transform="rotate(143.559 828.032 956.072)" fill="black"/>
<rect x="991.293" y="507.215" width="88.9851" height="946.801" transform="rotate(90 991.293 507.215)" fill="black"/>
<path d="M1149.42 685V453.063C1149.42 444.558 1151.48 436.827 1155.61 429.869C1159.73 422.653 1165.27 416.984 1172.23 412.86C1179.44 408.737 1187.3 406.675 1195.81 406.675H1381.36C1389.86 406.675 1397.59 408.737 1404.55 412.86C1411.77 416.984 1417.44 422.653 1421.56 429.869C1425.68 436.827 1427.75 444.558 1427.75 453.063V685H1396.43V583.334H1180.73V685H1149.42ZM1180.73 552.023H1396.43V453.063C1396.43 448.939 1394.89 445.46 1391.79 442.626C1388.96 439.533 1385.48 437.987 1381.36 437.987H1195.81C1191.68 437.987 1188.08 439.533 1184.98 442.626C1182.15 445.46 1180.73 448.939 1180.73 453.063V552.023ZM1471.02 685V460.794H1767.12C1775.88 460.794 1783.74 462.985 1790.7 467.366C1797.92 471.489 1803.59 477.159 1807.71 484.374C1811.83 491.332 1813.9 499.064 1813.9 507.568V685H1782.58V507.568C1782.58 503.445 1781.04 499.966 1777.95 497.131C1774.85 494.038 1771.25 492.492 1767.12 492.492H1673.96C1669.84 492.492 1666.23 494.038 1663.14 497.131C1660.3 499.966 1658.89 503.445 1658.89 507.568V685H1626.8V507.568C1626.8 503.445 1625.25 499.966 1622.16 497.131C1619.33 494.038 1615.85 492.492 1611.72 492.492H1518.18C1514.05 492.492 1510.45 494.038 1507.35 497.131C1504.52 499.966 1503.1 503.445 1503.1 507.568V685H1471.02ZM1894.9 685C1886.39 685 1878.53 682.938 1871.32 678.815C1864.36 674.434 1858.69 668.764 1854.31 661.806C1850.18 654.59 1848.12 646.73 1848.12 638.226V557.048H2044.5V507.568C2044.5 503.445 2042.95 499.966 2039.86 497.131C2037.02 494.038 2033.54 492.492 2029.42 492.492H1848.12V460.794H2029.42C2038.18 460.794 2046.04 462.985 2053 467.366C2060.22 471.489 2065.89 477.159 2070.01 484.374C2074.39 491.332 2076.58 499.064 2076.58 507.568V685H1894.9ZM1894.9 653.302H2044.5V588.746H1879.82V638.226C1879.82 642.349 1881.24 645.957 1884.07 649.05C1887.16 651.885 1890.77 653.302 1894.9 653.302ZM2163.69 685C2154.92 685 2146.94 682.938 2139.72 678.815C2132.76 674.434 2127.22 668.764 2123.1 661.806C2118.97 654.59 2116.91 646.73 2116.91 638.226V387.347H2148.61V460.794H2245.64V492.492H2148.61V638.226C2148.61 642.349 2150.03 645.957 2152.86 649.05C2155.96 651.885 2159.56 653.302 2163.69 653.302H2245.64V685H2163.69ZM2320.3 685C2311.8 685 2303.94 682.938 2296.72 678.815C2289.77 674.434 2284.1 668.764 2279.72 661.806C2275.59 654.59 2273.53 646.73 2273.53 638.226V635.134H2305.23V638.226C2305.23 642.349 2306.65 645.957 2309.48 649.05C2312.57 651.885 2316.18 653.302 2320.3 653.302H2454.83C2458.95 653.302 2462.43 651.885 2465.27 649.05C2468.36 645.957 2469.9 642.349 2469.9 638.226V603.822C2469.9 599.699 2468.36 596.22 2465.27 593.385C2462.43 590.292 2458.95 588.746 2454.83 588.746H2320.3C2311.8 588.746 2303.94 586.684 2296.72 582.561C2289.77 578.18 2284.1 572.51 2279.72 565.552C2275.59 558.337 2273.53 550.476 2273.53 541.972V507.568C2273.53 499.064 2275.59 491.332 2279.72 484.374C2284.1 477.159 2289.77 471.489 2296.72 467.366C2303.94 462.985 2311.8 460.794 2320.3 460.794H2454.83C2463.59 460.794 2471.45 462.985 2478.41 467.366C2485.62 471.489 2491.29 477.159 2495.42 484.374C2499.8 491.332 2501.99 499.064 2501.99 507.568V510.661H2469.9V507.568C2469.9 503.445 2468.36 499.966 2465.27 497.131C2462.43 494.038 2458.95 492.492 2454.83 492.492H2320.3C2316.18 492.492 2312.57 494.038 2309.48 497.131C2306.65 499.966 2305.23 503.445 2305.23 507.568V541.972C2305.23 546.095 2306.65 549.703 2309.48 552.796C2312.57 555.631 2316.18 557.048 2320.3 557.048H2454.83C2463.59 557.048 2471.45 559.239 2478.41 563.62C2485.62 567.743 2491.29 573.412 2495.42 580.628C2499.8 587.586 2501.99 595.318 2501.99 603.822V638.226C2501.99 646.73 2499.8 654.59 2495.42 661.806C2491.29 668.764 2485.62 674.434 2478.41 678.815C2471.45 682.938 2463.59 685 2454.83 685H2320.3ZM2579.69 685C2571.19 685 2563.33 682.938 2556.11 678.815C2549.16 674.434 2543.49 668.764 2539.1 661.806C2534.98 654.59 2532.92 646.73 2532.92 638.226V460.794H2564.62V638.226C2564.62 642.349 2566.04 645.957 2568.87 649.05C2571.96 651.885 2575.57 653.302 2579.69 653.302H2714.22C2718.34 653.302 2721.95 651.885 2725.04 649.05C2728.13 645.957 2729.68 642.349 2729.68 638.226V460.794H2761.38V638.226C2761.38 646.73 2759.19 654.59 2754.81 661.806C2750.68 668.764 2745.01 674.434 2737.8 678.815C2730.84 682.938 2722.98 685 2714.22 685H2579.69ZM2802.09 685V387.347H2833.79V557.048H2895.64L2983.77 460.794H3025.52V461.181L2923.85 572.897L3025.13 684.613V685H2983.77L2895.64 588.746H2833.79V685H2802.09ZM3097.99 685C3089.49 685 3081.63 682.938 3074.41 678.815C3067.46 674.434 3061.79 668.764 3057.41 661.806C3053.28 654.59 3051.22 646.73 3051.22 638.226V557.048H3247.59V507.568C3247.59 503.445 3246.05 499.966 3242.96 497.131C3240.12 494.038 3236.64 492.492 3232.52 492.492H3051.22V460.794H3232.52C3241.28 460.794 3249.14 462.985 3256.1 467.366C3263.31 471.489 3268.98 477.159 3273.11 484.374C3277.49 491.332 3279.68 499.064 3279.68 507.568V685H3097.99ZM3097.99 653.302H3247.59V588.746H3082.92V638.226C3082.92 642.349 3084.34 645.957 3087.17 649.05C3090.26 651.885 3093.87 653.302 3097.99 653.302Z" fill="white"/>
</g>
<defs>
<clipPath id="clip0_125_17">
<rect width="3348" height="1078" fill="white"/>
</clipPath>
</defs>
</svg>
